# File created by Blade
# Date/Time:  Tue Sep 28 14:35:47 2010
#---------------------------------------------------------
:version 1.10
:name HOM
:units
  mass 1.0
  length 1.000000
  angle deg
:documentation
     Acclaim Skeleton File
:root
   axis xyz
   order TX TY TZ RX RY RZ
   position 0.000000 0.000000 0.000000
   orientation 0 0 0
:bonedata
   begin
      id 1
      name LeftUpLeg_dum
      direction 1.000000 0.000000 0.000000
      length 3.677894
      axis 0.0 0.0 0.0 xyz
   end
   begin
      id 2
      name RightUpLeg_dum
      direction -1.000000 0.000000 0.000000
      length 3.677894
      axis 0.0 0.0 0.0 xyz
   end
   begin
      id 3
      name Spine_dum
      direction 0.000000 1.000000 0.000000
      length 0.039370
      axis 0.0 0.0 0.0 xyz
   end
   begin
      id 4
      name LeftUpLeg
      direction 0.000000 -1.000000 0.000000
      length 18.389491
      axis 0.0 0.0 0.0 xyz
      dof rx ry rz
   end
   begin
      id 5
      name LeftLeg
      direction 0.000000 -1.000000 0.000000
      length 16.918313
      axis 0.0 0.0 0.0 xyz
      dof rx ry rz
   end
   begin
      id 6
      name LeftFoot
      direction 0.000000 -0.258819 0.965926
      length 6.436326
      axis 15.0 0.0 0.0 xyz
      dof rx ry rz
   end
   begin
      id 7
      name LeftToeBase
      direction 0.000000 0.000000 1.000000
      length 2.952750
      axis 0.0 0.0 0.0 xyz
      dof rx ry rz
   end
   begin
      id 8
      name RightUpLeg
      direction 0.000000 -1.000000 0.000000
      length 18.389491
      axis 0.0 0.0 0.0 xyz
      dof rx ry rz
   end
   begin
      id 9
      name RightLeg
      direction 0.000000 -1.000000 0.000000
      length 16.918313
      axis 0.0 0.0 0.0 xyz
      dof rx ry rz
   end
   begin
      id 10
      name RightFoot
      direction 0.000000 -0.258819 0.965926
      length 6.436326
      axis 15.0 0.0 0.0 xyz
      dof rx ry rz
   end
   begin
      id 11
      name RightToeBase
      direction 0.000000 0.000000 1.000000
      length 2.952750
      axis 0.0 0.0 0.0 xyz
      dof rx ry rz
   end
   begin
      id 12
      name Spine
      direction 0.000000 1.000000 0.000000
      length 9.194745
      axis 0.0 0.0 0.0 xyz
      dof rx ry rz
   end
   begin
      id 13
      name Spine1
      direction 0.000000 1.000000 0.000000
      length 0.000000
      axis 0.0 0.0 0.0 xyz
      dof rx ry rz
   end
   begin
      id 14
      name Spine1_dum1
      direction 0.000000 1.000000 0.000000
      length 9.194745
      axis 0.0 0.0 0.0 xyz
   end
   begin
      id 15
      name Spine1_dum2
      direction 0.000000 1.000000 0.000000
      length 9.194745
      axis 0.0 0.0 0.0 xyz
   end
   begin
      id 16
      name Spine1_dum3
      direction 0.000000 1.000000 0.000000
      length 9.194745
      axis 0.0 0.0 0.0 xyz
   end
   begin
      id 17
      name Neck
      direction 0.000000 1.000000 0.000000
      length 4.229598
      axis 0.0 0.0 0.0 xyz
      dof rx ry rz
   end
   begin
      id 18
      name Head
      direction 0.000000 1.000000 0.000000
      length 4.527550
      axis 0.0 0.0 0.0 xyz
      dof rx ry rz
   end
   begin
      id 19
      name LeftShoulder
      direction 1.000000 -0.000004 0.000000
      length 5.516839
      axis 0.0 0.0 -90.0 xyz
      dof rx ry rz
   end
   begin
      id 20
      name LeftArm
      direction 1.000000 -0.000004 0.000000
      length 11.033679
      axis 0.0 0.0 -90.0 xyz
      dof rx ry rz
   end
   begin
      id 21
      name LeftForeArm
      direction 1.000000 -0.000004 0.000000
      length 10.114232
      axis 0.0 0.0 -90.0 xyz
      dof rx ry rz
   end
   begin
      id 22
      name LeftHand
      direction 0.000000 0.000000 0.000000
      length 0.000000
      axis 0.0 0.0 -90.0 xyz
      dof rx ry rz
   end
   begin
      id 23
      name LeftHand_dum1
      direction 0.000000 0.000000 0.000000
      length 0.000000
      axis 0.0 0.0 -90.0 xyz
   end
   begin
      id 24
      name LeftHand_dum2
      direction 1.000000 -0.000004 0.000000
      length 3.937000
      axis 0.0 0.0 -90.0 xyz
   end
   begin
      id 25
      name LeftHandThumb
      direction 0.000000 0.000000 1.000000
      length 3.937000
      axis 0.0 0.0 -90.0 xyz
      dof rx ry rz
   end
   begin
      id 26
      name RightShoulder
      direction -1.000000 -0.000004 0.000000
      length 5.516839
      axis 0.0 0.0 90.0 xyz
      dof rx ry rz
   end
   begin
      id 27
      name RightArm
      direction -1.000000 -0.000004 0.000000
      length 11.033679
      axis 0.0 0.0 90.0 xyz
      dof rx ry rz
   end
   begin
      id 28
      name RightForeArm
      direction -1.000000 -0.000004 0.000000
      length 10.114232
      axis 0.0 0.0 90.0 xyz
      dof rx ry rz
   end
   begin
      id 29
      name RightHand
      direction 0.000000 0.000000 0.000000
      length 0.000000
      axis 0.0 0.0 90.0 xyz
      dof rx ry rz
   end
   begin
      id 30
      name RightHand_dum1
      direction 0.000000 0.000000 0.000000
      length 0.000000
      axis 0.0 0.0 90.0 xyz
   end
   begin
      id 31
      name RightHand_dum2
      direction -1.000000 -0.000004 0.000000
      length 5.393690
      axis 0.0 0.0 90.0 xyz
   end
   begin
      id 32
      name RightHandThumb
      direction 0.000000 0.000000 1.000000
      length 3.937000
      axis 0.0 0.0 90.0 xyz
      dof rx ry rz
   end
:hierarchy
   begin
      root LeftUpLeg_dum RightUpLeg_dum Spine_dum
      LeftUpLeg_dum LeftUpLeg
      RightUpLeg_dum RightUpLeg
      Spine_dum Spine
      LeftUpLeg LeftLeg
      LeftLeg LeftFoot
      LeftFoot LeftToeBase
      RightUpLeg RightLeg
      RightLeg RightFoot
      RightFoot RightToeBase
      Spine Spine1
      Spine1 Spine1_dum1 Spine1_dum2 Spine1_dum3
      Spine1_dum1 Neck
      Spine1_dum2 LeftShoulder
      Spine1_dum3 RightShoulder
      Neck Head
      LeftShoulder LeftArm
      LeftArm LeftForeArm
      LeftForeArm LeftHand
      LeftHand LeftHand_dum1 LeftHand_dum2
      LeftHand_dum1 LeftHandThumb
      RightShoulder RightArm
      RightArm RightForeArm
      RightForeArm RightHand
      RightHand RightHand_dum1 RightHand_dum2
      RightHand_dum1 RightHandThumb
   end

# File created by Blade
# Date/Time:  Tue Sep 28 14:35:42 2010
# Frame Rate: 200.000 fps
#------------------------------------------------------
:FULLY-SPECIFIED
:DEGREES
602
root  2.409512 37.501055 0.469161 6.437537 2.676208 -3.202270
LeftUpLeg  -6.927301 8.034550 -0.587964
LeftLeg  17.448708 -0.000000 0.000000
LeftFoot  -3.552040 11.163270 9.445829
LeftToeBase  -11.087928 0.000000 -0.000000
RightUpLeg  -31.023484 -19.582003 5.061465
RightLeg  51.092796 -0.000000 0.000000
RightFoot  9.802064 -4.388037 -17.229640
RightToeBase  -13.774770 0.000000 -0.000000
Spine  -13.589849 -4.628352 -0.712834
Spine1  14.802851 -3.066398 4.871271
Neck  10.273315 2.694106 -4.773701
Head  -10.713206 3.068266 1.059716
LeftShoulder  -6.868074 -7.818813 -28.830619
LeftArm  -3.475502 52.127559 -39.933502
LeftForeArm  25.446218 -0.000000 0.000000
LeftHand  3.115971 -2.017132 -2.047950
LeftHandThumb  0.000000 -0.000000 0.000000
RightShoulder  0.852643 9.596590 19.932523
RightArm  -0.880793 -38.815562 40.109026
RightForeArm  48.436018 -0.000000 0.000000
RightHand  11.496880 10.841757 -3.722156
RightHandThumb  0.000000 -0.000000 0.000000
603
root  2.418426 37.485102 0.688251 6.526565 2.820110 -3.419087
LeftUpLeg  -6.573281 7.960715 -0.314138
LeftLeg  17.241600 -0.000000 0.000000
LeftFoot  -3.976478 11.098935 9.220948
LeftToeBase  -10.801246 0.000000 -0.000000
RightUpLeg  -31.257708 -19.690391 5.477626
RightLeg  49.869005 -0.000000 0.000000
RightFoot  9.352953 -4.281291 -17.049720
RightToeBase  -13.551493 0.000000 -0.000000
Spine  -13.673467 -4.669646 -0.481334
Spine1  14.670826 -3.178053 4.933089
Neck  10.207188 2.721288 -4.785914
Head  -10.415548 3.044458 1.068422
LeftShoulder  -6.881145 -7.579246 -28.934680
LeftArm  -3.303706 51.995753 -39.725665
LeftForeArm  25.449152 -0.000000 0.000000
LeftHand  3.099642 -2.203680 -2.083318
LeftHandThumb  0.000000 -0.000000 0.000000
RightShoulder  0.846760 9.584524 19.898615
RightArm  -0.999983 -38.638633 40.151250
RightForeArm  48.765061 -0.000000 0.000000
RightHand  11.261957 10.743885 -3.774048
RightHandThumb  0.000000 -0.000000 0.000000
604
root  2.434194 37.485412 0.902996 6.661677 3.122133 -4.100256
LeftUpLeg  -6.237691 7.666394 0.405104
LeftLeg  16.819943 -0.000000 0.000000
LeftFoot  -4.129992 11.217323 9.345166
LeftToeBase  -11.349648 0.000000 -0.000000
RightUpLeg  -31.483462 -20.072955 6.455686
RightLeg  48.334849 -0.000000 0.000000
RightFoot  9.515222 -4.075715 -17.250318
RightToeBase  -14.334857 0.000000 -0.000000
Spine  -13.978202 -4.704121 0.145838
Spine1  14.991626 -3.443910 5.099470
Neck  9.947311 2.694798 -4.757867
Head  -10.493173 2.979362 1.073555
LeftShoulder  -6.826316 -7.389659 -29.264395
LeftArm  -2.817038 51.411575 -39.155725
LeftForeArm  25.423954 -0.000000 0.000000
LeftHand  2.999387 -2.223139 -2.240351
LeftHandThumb  0.000000 -0.000000 0.000000
RightShoulder  1.004114 9.788032 19.925229
RightArm  -1.204825 -38.294070 40.128312
RightForeArm  48.905886 -0.000000 0.000000
RightHand  11.813334 11.045475 -3.382420
RightHandThumb  0.000000 -0.000000 0.000000
605
root  2.439217 37.465431 1.042009 6.626726 3.198401 -4.134858
LeftUpLeg  -6.151224 7.658145 0.469444
LeftLeg  17.171286 -0.000000 0.000000
LeftFoot  -4.358619 11.355913 9.288219
LeftToeBase  -11.372269 0.000000 -0.000000
RightUpLeg  -31.911646 -20.063865 6.703621
RightLeg  47.387740 -0.000000 0.000000
RightFoot  9.130411 -4.112813 -16.756010
RightToeBase  -12.952588 0.000000 -0.000000
Spine  -13.832765 -4.711353 0.200908
Spine1  15.173755 -3.481568 5.109154
Neck  9.889381 2.730920 -4.805319
Head  -10.718852 2.951124 1.031714
LeftShoulder  -6.612878 -7.953777 -29.243492
LeftArm  -3.054348 51.895717 -39.297226
LeftForeArm  25.387072 -0.000000 0.000000
LeftHand  3.136786 -2.192909 -2.055071
LeftHandThumb  0.000000 -0.000000 0.000000
RightShoulder  1.085256 9.997625 19.941934
RightArm  -1.109605 -38.088701 40.103086
RightForeArm  49.019002 -0.000000 0.000000
RightHand  11.802894 10.593805 -3.873367
RightHandThumb  0.000000 -0.000000 0.000000
606
root  2.445775 37.443367 1.218335 6.647717 3.296785 -4.193497
LeftUpLeg  -5.992530 7.654634 0.571815
LeftLeg  17.384042 -0.000000 0.000000
LeftFoot  -4.733734 11.347461 9.187182
LeftToeBase  -11.073321 0.000000 -0.000000
RightUpLeg  -32.215920 -20.140785 6.993066
RightLeg  46.239747 -0.000000 0.000000
RightFoot  8.884723 -4.170745 -16.609430
RightToeBase  -12.814221 0.000000 -0.000000
Spine  -13.741904 -4.729531 0.279727
Spine1  15.194666 -3.528472 5.122000
Neck  9.763689 2.729949 -4.782326
Head  -10.732983 2.916006 1.096330
LeftShoulder  -6.561915 -7.985313 -29.238351
LeftArm  -2.849444 51.602525 -39.126002
LeftForeArm  25.494782 -0.000000 0.000000
LeftHand  2.775370 -2.040101 -2.302011
LeftHandThumb  0.000000 -0.000000 0.000000
RightShoulder  1.095482 9.993202 19.926509
RightArm  -1.020640 -37.798673 40.070779
RightForeArm  49.203907 -0.000000 0.000000
RightHand  11.767763 10.510532 -3.978064
RightHandThumb  0.000000 -0.000000 0.000000
607
root  2.450005 37.424393 1.419723 6.722137 3.442683 -4.318128
LeftUpLeg  -5.729102 7.683653 0.753059
LeftLeg  17.315888 -0.000000 0.000000
LeftFoot  -5.043990 11.254174 9.112724
LeftToeBase  -10.912457 0.000000 -0.000000
RightUpLeg  -32.438507 -20.374844 7.395581
RightLeg  44.859907 -0.000000 0.000000
RightFoot  8.640915 -4.129838 -16.562326
RightToeBase  -12.692582 0.000000 -0.000000
Spine  -13.745119 -4.763044 0.421588
Spine1  15.073888 -3.603305 5.151307
Neck  9.780850 2.669346 -4.752792
Head  -10.652995 2.941898 1.115592
LeftShoulder  -6.530613 -7.907929 -29.289944
LeftArm  -2.715542 51.461493 -38.985428
LeftForeArm  25.446493 -0.000000 0.000000
LeftHand  2.741423 -2.055093 -2.297690
LeftHandThumb  0.000000 -0.000000 0.000000
RightShoulder  1.071563 9.957864 19.927388
RightArm  -1.028600 -37.574938 40.087706
RightForeArm  49.314717 -0.000000 0.000000
RightHand  11.664578 10.336465 -3.997795
RightHandThumb  0.000000 -0.000000 0.000000
608
root  2.455628 37.401520 1.570545 6.726990 3.548710 -4.355993
LeftUpLeg  -5.585374 7.670952 0.821812
LeftLeg  17.463789 -0.000000 0.000000
LeftFoot  -5.180017 11.316394 9.227033
LeftToeBase  -11.265929 0.000000 -0.000000
RightUpLeg  -32.813734 -20.488961 7.676205
RightLeg  43.761250 -0.000000 0.000000
RightFoot  8.484344 -4.097772 -16.197518
RightToeBase  -12.158120 0.000000 -0.000000
Spine  -13.610403 -4.774890 0.479861
Spine1  15.207256 -3.643370 5.162225
Neck  9.569975 2.639853 -4.703012
Head  -10.903233 2.896246 1.103542
LeftShoulder  -6.382400 -8.231841 -29.310300
LeftArm  -2.682933 51.463237 -38.944666
LeftForeArm  25.403923 -0.000000 0.000000
LeftHand  2.788214 -2.044881 -2.299981
LeftHandThumb  0.000000 -0.000000 0.000000
RightShoulder  1.120751 10.077464 19.946221
RightArm  -0.935548 -37.298039 40.040837
RightForeArm  49.328210 -0.000000 0.000000
RightHand  11.914085 10.533561 -4.241366
RightHandThumb  0.000000 -0.000000 0.000000
609
root  2.458960 37.381837 1.794225 6.834128 3.717913 -4.492151
LeftUpLeg  -5.270567 7.446950 1.023325
LeftLeg  17.297055 -0.000000 0.000000
LeftFoot  -5.525257 11.352611 8.927580
LeftToeBase  -10.844281 0.000000 -0.000000
RightUpLeg  -32.913543 -20.771518 8.112350
RightLeg  42.146729 -0.000000 0.000000
RightFoot  8.201466 -4.095411 -16.117735
RightToeBase  -12.037709 0.000000 -0.000000
Spine  -13.677281 -4.829190 0.642248
Spine1  14.993074 -3.738900 5.200456
Neck  9.577952 2.586350 -4.662951
Head  -10.513101 2.936943 1.082720
LeftShoulder  -6.383138 -7.952285 -29.412239
LeftArm  -2.481043 51.282006 -38.725451
LeftForeArm  25.242443 -0.000000 0.000000
LeftHand  3.030588 -2.179235 -2.066053
LeftHandThumb  0.000000 -0.000000 0.000000
RightShoulder  1.080479 10.045432 19.959535
RightArm  -1.032087 -37.207608 40.093338
RightForeArm  49.435197 -0.000000 0.000000
RightHand  11.661917 10.314836 -4.200986
RightHandThumb  0.000000 -0.000000 0.000000
610
root  2.463234 37.357291 1.939376 6.836134 3.829727 -4.532750
LeftUpLeg  -5.128453 7.344534 1.091798
LeftLeg  17.426852 -0.000000 0.000000
LeftFoot  -5.596529 11.502669 9.068343
LeftToeBase  -11.378919 0.000000 -0.000000
RightUpLeg  -33.293395 -20.912187 8.413040
RightLeg  41.034754 -0.000000 0.000000
RightFoot  8.106538 -4.033734 -15.785610
RightToeBase  -11.556726 0.000000 -0.000000
Spine  -13.539740 -4.837593 0.697524
Spine1  15.173428 -3.777190 5.215461
Neck  9.403770 2.536601 -4.635575
Head  -10.917641 2.866995 1.090373
LeftShoulder  -6.203603 -8.366522 -29.431774
LeftArm  -2.467932 51.348293 -38.683726
LeftForeArm  25.237194 -0.000000 0.000000
LeftHand  3.144688 -2.244467 -2.108250
LeftHandThumb  0.000000 -0.000000 0.000000
RightShoulder  1.139968 10.182368 19.991023
RightArm  -0.926039 -36.896140 40.034084
RightForeArm  49.383541 -0.000000 0.000000
RightHand  11.970489 10.450758 -4.372444
RightHandThumb  0.000000 -0.000000 0.000000
611
root  2.464978 37.334033 2.156507 6.944219 4.022970 -4.667922
LeftUpLeg  -4.849478 7.035234 1.287861
LeftLeg  17.297892 -0.000000 0.000000
LeftFoot  -5.932078 11.627106 8.771816
LeftToeBase  -11.012426 0.000000 -0.000000
RightUpLeg  -33.383805 -21.292048 8.888964
RightLeg  39.366255 -0.000000 0.000000
RightFoot  7.819962 -3.916299 -15.757161
RightToeBase  -11.370953 0.000000 -0.000000
Spine  -13.601619 -4.876862 0.851378
Spine1  14.990927 -3.856351 5.264288
Neck  9.438836 2.466043 -4.599981
Head  -10.661108 2.895812 1.099356
LeftShoulder  -6.191383 -8.168443 -29.520335
LeftArm  -2.236421 51.131401 -38.423109
LeftForeArm  25.265096 -0.000000 0.000000
LeftHand  2.953242 -2.350478 -2.081938
LeftHandThumb  0.000000 -0.000000 0.000000
RightShoulder  1.094454 10.074059 20.014362
RightArm  -0.974788 -36.720211 40.043583
RightForeArm  49.465273 -0.000000 0.000000
RightHand  11.732386 10.381194 -4.423498
RightHandThumb  0.000000 -0.000000 0.000000
612
root  2.469310 37.307408 2.304205 6.946447 4.134560 -4.700614
LeftUpLeg  -4.726962 7.077574 1.353771
LeftLeg  17.471521 -0.000000 0.000000
LeftFoot  -6.015108 11.670282 8.970351
LeftToeBase  -11.570733 0.000000 -0.000000
RightUpLeg  -33.735937 -21.413447 9.179158
RightLeg  38.229343 -0.000000 0.000000
RightFoot  7.726362 -3.861251 -15.424965
RightToeBase  -10.909789 0.000000 -0.000000
Spine  -13.460598 -4.886715 0.909479
Spine1  15.171786 -3.897032 5.281529
Neck  9.228692 2.462704 -4.592656
Head  -11.036395 2.829731 1.087362
LeftShoulder  -6.029039 -8.505776 -29.556085
LeftArm  -2.090524 50.942427 -38.303244
LeftForeArm  25.288059 -0.000000 0.000000
LeftHand  2.820244 -2.165096 -2.329153
LeftHandThumb  0.000000 -0.000000 0.000000
RightShoulder  1.162438 10.254809 20.048668
RightArm  -0.904958 -36.494873 39.992055
RightForeArm  49.365768 -0.000000 0.000000
RightHand  12.045637 10.577318 -4.603146
RightHandThumb  0.000000 -0.000000 0.000000
613
root  2.467674 37.284207 2.525434 7.050775 4.325441 -4.841670
LeftUpLeg  -4.467371 6.874845 1.553515
LeftLeg  17.374507 -0.000000 0.000000
LeftFoot  -6.302132 11.764934 8.821029
LeftToeBase  -11.381233 0.000000 -0.000000
RightUpLeg  -33.781698 -21.877267 9.713877
RightLeg  36.446907 -0.000000 0.000000
RightFoot  7.447995 -3.685755 -15.529097
RightToeBase  -11.132976 0.000000 -0.000000
Spine  -13.539736 -4.937009 1.062636
Spine1  14.996175 -3.986475 5.329191
Neck  9.273812 2.420101 -4.566185
Head  -10.858301 2.881916 1.103404
LeftShoulder  -5.989671 -8.293972 -29.674465
LeftArm  -1.925622 50.831260 -38.083933
LeftForeArm  25.204913 -0.000000 0.000000
LeftHand  3.123758 -2.285960 -2.106294
LeftHandThumb  0.000000 -0.000000 0.000000
RightShoulder  1.136363 10.224629 20.097558
RightArm  -0.999818 -36.414851 40.024580
RightForeArm  49.322037 -0.000000 0.000000
RightHand  11.947763 10.457288 -4.604992
RightHandThumb  0.000000 -0.000000 0.000000
